<?xml version="1.0" encoding="UTF-8"?>
<svg width="1280px" height="680px" viewBox="0 0 1280 680" version="1.1" xmlns="http://www.w3.org/2000/svg" xmlns:xlink="http://www.w3.org/1999/xlink">
    <!-- Generator: Sketch 42 (36781) - http://www.bohemiancoding.com/sketch -->
    <title>Group</title>
    <desc>Created with Sketch.</desc>
    <defs>
        <rect id="path-1" x="0" y="0" width="1280" height="680"></rect>
        <mask id="mask-2" maskContentUnits="userSpaceOnUse" maskUnits="objectBoundingBox" x="0" y="0" width="1280" height="680" fill="white">
            <use xlink:href="#path-1"></use>
        </mask>
    </defs>
    <g id="Page-3" stroke="none" stroke-width="1" fill="none" fill-rule="evenodd">
        <g id="Group">
            <use id="Rectangle-2" stroke="#979797" mask="url(#mask-2)" stroke-width="2" fill="#D8D8D8" xlink:href="#path-1"></use>
            <path d="M898.511629,317.837376 C999.422453,317.837376 1031.43042,321.571329 1031.43042,250.63866 C1031.43042,179.70599 958.718015,114 857.807191,114 C756.896367,114 666,179.70599 666,250.63866 C666,321.571329 797.600805,317.837376 898.511629,317.837376 Z" id="Oval" fill-opacity="0.95" fill="#E3F6FC" opacity="0.895380435"></path>
            <path d="M932.883797,558.44977 C1033.79462,558.44977 1074.81973,370.890989 1074.81973,299.95832 C1074.81973,229.02565 955.494573,271.107365 854.583749,271.107365 C753.672925,271.107365 700.372168,420.318385 700.372168,491.251054 C700.372168,562.183723 831.972973,558.44977 932.883797,558.44977 Z" id="Oval" fill-opacity="0.95" fill="#FF5959" opacity="0.895380435"></path>
            <path d="M1202.32187,260.036975 C1234.37257,242.971427 1222.25824,191.641609 1222.25824,166.116117 C1222.25824,140.590625 1148.72264,149.491795 1120.95592,166.57713 C1093.1892,183.662464 1087.51133,209.428315 1087.51133,234.953807 C1087.51133,260.479299 1170.27116,277.102523 1202.32187,260.036975 Z" id="Oval" fill="#FDECD8" opacity="0.895380435"></path>
            <path d="M953.5,335.5 L1039.5,130.5" id="Line" stroke="#000000" stroke-width="9" stroke-linecap="square"></path>
        </g>
    </g>
</svg>