<?xml version="1.0" encoding="UTF-8"?>
<svg width="2rem" height="58px" viewBox="0 0 104 58" version="1.1" xmlns="http://www.w3.org/2000/svg" xmlns:xlink="http://www.w3.org/1999/xlink">
    <!-- Generator: Sketch 49.1 (51147) - http://www.bohemiancoding.com/sketch -->
    <title>Group 4</title>
    <desc>Created with Sketch.</desc>
    <defs></defs>
    <g id="Page-4" stroke="none" stroke-width="1" fill="none" fill-rule="evenodd">
        <g id="Group-4" transform="translate(-1.000000, -1.000000)" fill="#222" fill-rule="nonzero">
            <path d="M17,17 L17,43 L43,43 L43,17 L17,17 Z M13,9 L47,9 C49.209139,9 51,10.790861 51,13 L51,47 C51,49.209139 49.209139,51 47,51 L13,51 C10.790861,51 9,49.209139 9,47 L9,13 C9,10.790861 10.790861,9 13,9 Z" id="Rectangle-2" transform="translate(30.000000, 30.000000) rotate(-315.000000) translate(-30.000000, -30.000000) "></path>
            <path d="M63,17 L63,43 L89,43 L89,17 L63,17 Z M59,9 L93,9 C95.209139,9 97,10.790861 97,13 L97,47 C97,49.209139 95.209139,51 93,51 L59,51 C56.790861,51 55,49.209139 55,47 L55,13 C55,10.790861 56.790861,9 59,9 Z" id="Rectangle-2" transform="translate(76.000000, 30.000000) rotate(-315.000000) translate(-76.000000, -30.000000) "></path>
        </g>
    </g>
</svg>
