<?xml version="1.0" encoding="UTF-8"?>
<svg width="100%" height="100%" viewBox="0 0 234 234" version="1.1" xmlns="http://www.w3.org/2000/svg" xmlns:xlink="http://www.w3.org/1999/xlink">
    <!-- Generator: Sketch 43.2 (39069) - http://www.bohemiancoding.com/sketch -->
    <title>logotipo_feito</title>
    <desc>Created with Sketch.</desc>
    <defs>
        <polygon id="path-1" points="0 233.992927 233.911587 233.992927 233.911587 0.0884130982 0 0.0884130982"></polygon>
    </defs>
    <g id="Page-1" stroke="none" stroke-width="1" fill="none" fill-rule="evenodd">
        <g id="Desktop-Landscape" transform="translate(-755.000000, -1871.000000)">
            <g id="logotipo_feito" transform="translate(755.000000, 1871.000000)">
                <path d="M72.2024904,103.27828 L64.095319,103.27828 L59.0273025,126.89315 C55.9012083,141.3621 50.7503298,154 39.6848268,154 C34.5340682,154 32,151.006099 32,148.179837 C32,145.352394 33.4357561,143.356066 36.3071484,143.356066 C38.4188719,143.356066 39.9394088,144.603919 39.9394088,146.516427 C39.9394088,148.678033 38.9261173,148.678033 38.9261173,149.925886 C38.9261173,150.507902 39.3473827,150.84082 40.4455749,150.84082 C43.4848498,150.84082 45.2600885,148.263656 47.4555135,138.03528 L54.8039755,103.27828 L46.6958447,103.27828 L47.7091362,99.453618 L50.5381981,99.453618 C53.6337137,99.453618 55.3535512,97.9605631 56.944239,94.6381116 C59.8897395,85.9105819 64.4633416,78 72.9632385,78 C78.0312549,78 82,80.1625508 82,84.3194224 C82,86.8976485 80.4804225,88.6442878 77.5230503,88.6442878 C75.1598626,88.6442878 73.5544251,87.0637534 73.5544251,85.2344749 C73.5544251,83.238147 74.651538,83.0729866 74.651538,81.90919 C74.651538,81.1602424 73.8079279,80.8280327 72.9632385,80.8280327 C69.4158788,80.8280327 66.7970299,87.0637534 64.7692477,99.453618 L72.8784578,99.453618 L72.2024904,103.27828" id="Fill-1" fill="#1B1A18"></path>
                <path d="M81.5501909,117.997925 C87.159278,116.172024 97.7945866,111.275261 97.7945866,103.723606 C97.7945866,101.730964 96.5385067,100.153348 94.3609926,100.153348 C87.4938047,100.153348 82.4706741,112.769566 81.5501909,117.997925 Z M100.9758,128.954747 C97.2076789,133.352465 90.6770386,138 82.9744851,138 C75.6886039,138 71,133.352465 71,125.301766 C71,111.441059 82.8903185,97 95.9515991,97 C101.97938,97 106,99.3242387 106,104.303488 C106,114.760323 88.8340511,119.326196 80.9631644,121.152687 C80.7128043,122.645695 80.5444711,124.223548 80.5444711,125.551583 C80.5444711,130.115453 82.8903185,133.02134 87.663089,133.02134 C90.6770386,133.02134 95.0300459,131.276158 99.0506664,126.87844 L100.9758,128.954747 L100.9758,128.954747 Z" id="Fill-2" fill="#1B1A18"></path>
                <path d="M124.729247,79 C127.611325,79 130,81.417288 130,84.3332725 C130,87.2510317 127.611325,89.6664267 124.729247,89.6664267 C121.848338,89.6664267 119.458493,87.2510317 119.458493,84.3332725 C119.458493,81.417288 121.848338,79 124.729247,79 Z M111.307065,98.9165079 C118.223818,98.083099 124.894104,96.8339323 125.963922,96.8339323 C126.459663,96.8339323 126.953065,96.9994545 126.953065,97.4172238 C126.953065,98.0002787 126.623351,98.8347524 126.128779,100.583207 C125.553533,102.834145 118.388675,126.750637 118.388675,130.41721 C118.388675,131.833437 118.883247,132.165901 119.789377,132.165901 C122.09387,132.165901 124.318858,127.916037 125.141974,126.583813 L126.706364,127.499569 C125.305662,130.251569 121.353766,138 114.188559,138 C110.978052,138 109,136.084485 109,132.9172 C109,128.166864 116.000234,105.250605 116.000234,103.416372 C116.000234,101.250147 114.43678,100.833443 110.895273,100.750741 L111.307065,98.9165079 L111.307065,98.9165079 Z" id="Fill-3" fill="#1B1A18"></path>
                <path d="M134.850487,97.68994 C142.340838,96.1958353 147.893494,91.8841382 150.417754,85 L153.110458,85 L150.332935,97.0261944 L159,97.0261944 L158.242602,100.841819 L149.490719,100.841819 C146.378699,113.777853 142.592906,127.544834 142.592906,129.785579 C142.592906,130.780549 143.265484,131.527072 144.274949,131.527072 C145.958188,131.527072 148.315199,129.12148 151.090333,125.388867 L152.689947,126.633464 C150.668627,129.618376 145.537677,137 138.890737,137 C134.850487,137 133,135.424531 133,132.023969 C133,128.292534 137.12268,113.777853 140.235894,100.841819 L134.262727,100.841819 L134.850487,97.68994" id="Fill-4" fill="#1B1A18"></path>
                <g id="Group-8">
                    <mask id="mask-2" fill="white">
                        <use xlink:href="#path-1"></use>
                    </mask>
                    <g id="Clip-6"></g>
                    <path d="M173.636252,134.123849 C183.681159,134.123849 187.086831,112.95068 187.086831,106.973365 C187.086831,101.824422 184.429723,99.4167567 181.191446,99.4167567 C171.477793,99.4167567 167.739688,120.755788 167.739688,126.733693 C167.739688,132.130428 169.981844,134.123849 173.636252,134.123849 Z M173.717592,137.278428 C166.246096,137.278428 158.607204,132.795295 158.607204,121.66939 C158.607204,109.712757 168.654469,96.2621773 181.108927,96.2621773 C188.581602,96.2621773 196.219315,100.745782 196.219315,112.037903 C196.219315,123.827849 186.17205,137.278428 173.717592,137.278428 L173.717592,137.278428 Z" id="Fill-5" fill="#1B1A18" mask="url(#mask-2)"></path>
                    <path d="M116.95544,8.53162821 C57.1215809,8.53162821 8.44321511,57.209994 8.44321511,117.044324 C8.44321511,176.878065 57.1215809,225.557139 116.95544,225.557139 C176.789652,225.557139 225.468725,176.878065 225.468725,117.044324 C225.468725,57.209994 176.789652,8.53162821 116.95544,8.53162821 Z M116.95544,234 C52.4653935,234 0,181.534489 0,117.044324 C0,52.5547496 52.4653935,0.0884130982 116.95544,0.0884130982 C181.444897,0.0884130982 233.911587,52.5547496 233.911587,117.044324 C233.911587,181.534489 181.444897,234 116.95544,234 L116.95544,234 Z" id="Fill-7" fill="#1B1A18" mask="url(#mask-2)"></path>
                </g>
            </g>
        </g>
    </g>
</svg>
